<?xml version="1.0" encoding="UTF-8"?>
<svg id="Ebene_3" data-name="Ebene 3" xmlns="http://www.w3.org/2000/svg" xmlns:xlink="http://www.w3.org/1999/xlink" viewBox="0 0 1920 1080">
  <defs>
    <style>
      .cls-1 {
        font-size: 196.65px;
      }

      .cls-1, .cls-2 {
        fill: #2b2b2a;
        font-family: Juniory, Juniory;
      }

      .cls-3 {
        fill: #e44f28;
      }

      .cls-3, .cls-4, .cls-5, .cls-6 {
        stroke-width: 0px;
      }

      .cls-2 {
        font-size: 196.65px;
      }

      .cls-4 {
        fill: none;
      }

      .cls-7 {
        clip-path: url(#clippath-1);
      }

      .cls-5 {
        fill: #1db022;
      }

      .cls-6 {
        fill: #fff;
      }

      .cls-8 {
        clip-path: url(#clippath);
      }
    </style>
    <clipPath id="clippath">
      <rect class="cls-4" x="376.99" y="155" width="1209.41" height="715.35"/>
    </clipPath>
    <clipPath id="clippath-1">
      <rect class="cls-4" x="376.99" y="155" width="1209.41" height="715.35"/>
    </clipPath>
  </defs>
  <polygon class="cls-6" points="376.99 589 523.93 661.46 503.87 485.35 376.99 589"/>
  <g class="cls-8">
    <path class="cls-6" d="M706.95,661.92c60.25-6.86,103.53-61.27,96.66-121.52-6.86-60.25-61.27-103.53-121.52-96.66-60.25,6.86-103.52,61.27-96.66,121.52,6.86,60.25,61.27,103.52,121.52,96.66"/>
  </g>
  <polygon class="cls-6" points="627.04 743.47 730.69 870.35 803.15 723.4 627.04 743.47"/>
  <polygon class="cls-6" points="658.34 235.3 585.89 382.24 761.99 362.18 658.34 235.3"/>
  <polygon class="cls-6" points="1012.04 516.65 865.1 444.19 885.16 620.3 1012.04 516.65"/>
  <g class="cls-7">
    <path class="cls-5" d="M1245.53,387.7c64.26,0,116.35-52.09,116.35-116.35s-52.09-116.35-116.35-116.35-116.35,52.09-116.35,116.35,52.09,116.35,116.35,116.35"/>
    <path class="cls-3" d="M1470.04,576.16c64.26,0,116.35-52.09,116.35-116.35s-52.09-116.35-116.35-116.35-116.35,52.09-116.35,116.35,52.09,116.35,116.35,116.35"/>
  </g>
  <text class="cls-1" transform="translate(1168.69 352.35) rotate(-6.5)"><tspan x="0" y="0">A</tspan></text>
  <text class="cls-2" transform="translate(1406.36 535.24) rotate(2)"><tspan x="0" y="0">B</tspan></text>
</svg>